<svg width="64" height="57" viewBox="0 0 64 57" fill="none" xmlns="http://www.w3.org/2000/svg">
<path d="M4 9.99988H12C15.2013 9.99988 18.2258 11.4585 20.21 13.954L20.3984 14.1981L20.4004 14.2001L39.5996 39.7997V39.7987C40.6382 41.1967 42.274 41.9999 44 41.9999H49.5V36.4999C49.5001 35.4957 50.1083 34.5776 51.0518 34.1844C51.9254 33.8204 52.922 33.9846 53.6426 34.5995L53.7822 34.7294L61.7764 42.7235C62.2485 43.1957 62.5126 43.8276 62.5127 44.4872C62.5127 45.0643 62.311 45.6209 61.9443 46.0673L61.7764 46.2518L53.7764 54.2518L53.6104 54.4169C52.8979 55.0216 51.9141 55.1799 51.0391 54.8153C50.0932 54.4211 49.4873 53.5138 49.4873 52.4999V46.9999H43.9873C40.7862 46.9998 37.7614 45.5419 35.7773 43.0468L35.5889 42.8016L35.5879 42.8007L16.4004 17.2001H16.3994C15.3608 15.8028 13.7255 14.9999 12 14.9999H4C2.61593 14.9999 1.5 13.884 1.5 12.4999C1.50007 11.1159 2.61597 9.99988 4 9.99988ZM23.624 38.4999L20.4004 42.7997L20.3984 42.8016C18.4205 45.446 15.3044 46.9999 12 46.9999H4C2.61593 46.9999 1.5 45.884 1.5 44.4999C1.50007 43.1159 2.61597 41.9999 4 41.9999H12C13.7253 41.9999 15.3608 41.1976 16.3994 39.8007L20.499 34.3368L23.624 38.4999ZM51.0518 2.18445C51.9254 1.82044 52.922 1.98459 53.6426 2.59949L53.7822 2.72937L61.7764 10.7235C62.2485 11.1957 62.5126 11.8276 62.5127 12.4872C62.5127 13.0643 62.311 13.6209 61.9443 14.0673L61.7764 14.2518L53.7764 22.2518C53.1016 22.9264 52.1233 23.1532 51.2295 22.8563L51.0518 22.7899C50.1061 22.3957 49.5002 21.4893 49.5 20.4755V14.9755H44C42.3794 14.9755 40.8378 15.6829 39.7959 16.9266L39.5986 17.1766L35.498 22.66L32.375 18.4989L35.5996 14.2001L35.6016 14.1981C37.5795 11.5539 40.6957 9.99988 44 9.99988H49.5V4.49988C49.5 3.55847 50.0347 2.69299 50.8789 2.26453L51.0518 2.18445Z" stroke="white" stroke-width="3"/>
</svg>
