<svg width="75" height="60" viewBox="0 0 75 60" fill="none" xmlns="http://www.w3.org/2000/svg">
<path d="M73.1416 57.6387H73.1426L73.1465 57.6426H73.1455L73.1416 57.6387ZM24.374 1.5C37.255 1.5 47.249 10.2878 47.249 20.625C47.249 30.9622 37.255 39.75 24.374 39.75C20.1257 39.7499 16.1694 38.7828 12.7686 37.1045L12.0733 36.7607L11.3916 37.1299C10.7904 37.4548 10.1075 37.7781 9.37112 38.084L8.61819 38.3828C6.57817 39.1516 4.18755 39.75 1.87405 39.75C1.75706 39.7499 1.61683 39.6744 1.54202 39.5332L1.51369 39.4688C1.47317 39.349 1.51092 39.1745 1.65725 39.0654L1.74514 39.001L1.75588 38.9893L1.85061 38.917C2.00136 38.7964 2.20333 38.6209 2.41409 38.4336L2.42287 38.4258L2.43069 38.418C2.88682 37.9998 3.52831 37.3734 4.16213 36.5547L4.16116 36.5537C4.87212 35.6474 5.56982 34.5443 6.04592 33.2656L6.35354 32.4375L5.77932 31.7666C3.06809 28.5979 1.49905 24.7526 1.49905 20.625C1.49905 10.2879 11.4932 1.50018 24.374 1.5ZM53.999 20.4473C65.2151 21.8272 73.4883 29.9522 73.4883 39.3633C73.4883 43.5036 71.9182 47.3476 69.209 50.5029L68.6309 51.1777L68.9434 52.0088C69.4175 53.2686 70.1112 54.3817 70.8252 55.292V55.293C71.4513 56.1017 72.0851 56.7226 72.5401 57.1406V57.1416C72.7978 57.385 73.0137 57.5569 73.1367 57.6553C73.1685 57.6807 73.1984 57.7027 73.2246 57.7217L73.2471 57.7441L73.3399 57.8115C73.4697 57.9066 73.5295 58.0773 73.4766 58.2441C73.4297 58.3915 73.2839 58.4998 73.125 58.5C70.8112 58.5 68.4201 57.9017 66.3799 57.1328H66.3809C65.3608 56.7447 64.4218 56.3144 63.5996 55.876L62.9209 55.5137L62.2305 55.8545C58.8295 57.5329 54.8726 58.5 50.624 58.5C40.7304 58.4998 32.4659 53.2707 29.2285 46.1475C42.6822 44.1785 53.999 34.1225 53.999 20.625V20.4473Z" stroke="white" stroke-width="3"/>
</svg>
