<svg width="40" height="40" viewBox="0 0 40 40" fill="none" xmlns="http://www.w3.org/2000/svg">
<path d="M13.9062 1.875C13.9062 0.835938 13.0912 0 12.0781 0C11.065 0 10.25 0.835938 10.25 1.875V5C7.56113 5 5.375 7.24219 5.375 10H2.32812C1.31504 10 0.5 10.8359 0.5 11.875C0.5 12.9141 1.31504 13.75 2.32812 13.75H5.375V18.125H2.32812C1.31504 18.125 0.5 18.9609 0.5 20C0.5 21.0391 1.31504 21.875 2.32812 21.875H5.375V26.25H2.32812C1.31504 26.25 0.5 27.0859 0.5 28.125C0.5 29.1641 1.31504 30 2.32812 30H5.375C5.375 32.7578 7.56113 35 10.25 35V38.125C10.25 39.1641 11.065 40 12.0781 40C13.0912 40 13.9062 39.1641 13.9062 38.125V35H18.1719V38.125C18.1719 39.1641 18.9869 40 20 40C21.0131 40 21.8281 39.1641 21.8281 38.125V35H26.0938V38.125C26.0938 39.1641 26.9088 40 27.9219 40C28.935 40 29.75 39.1641 29.75 38.125V35C32.4389 35 34.625 32.7578 34.625 30H37.6719C38.685 30 39.5 29.1641 39.5 28.125C39.5 27.0859 38.685 26.25 37.6719 26.25H34.625V21.875H37.6719C38.685 21.875 39.5 21.0391 39.5 20C39.5 18.9609 38.685 18.125 37.6719 18.125H34.625V13.75H37.6719C38.685 13.75 39.5 12.9141 39.5 11.875C39.5 10.8359 38.685 10 37.6719 10H34.625C34.625 7.24219 32.4389 5 29.75 5V1.875C29.75 0.835938 28.935 0 27.9219 0C26.9088 0 26.0938 0.835938 26.0938 1.875V5H21.8281V1.875C21.8281 0.835938 21.0131 0 20 0C18.9869 0 18.1719 0.835938 18.1719 1.875V5H13.9062V1.875ZM12.6875 10H27.3125C28.6607 10 29.75 11.1172 29.75 12.5V27.5C29.75 28.8828 28.6607 30 27.3125 30H12.6875C11.3393 30 10.25 28.8828 10.25 27.5V12.5C10.25 11.1172 11.3393 10 12.6875 10ZM27.3125 12.5H12.6875V27.5H27.3125V12.5Z" fill="white"/>
</svg>
