<svg width="50" height="40" viewBox="0 0 50 40" fill="none" xmlns="http://www.w3.org/2000/svg">
<path d="M30.6879 0.0979579C29.3597 -0.284774 27.9768 0.4885 27.594 1.81634L17.5932 36.8089C17.2103 38.1368 17.9838 39.5193 19.3121 39.902C20.6403 40.2848 22.0232 39.5115 22.406 38.1837L32.4068 3.19105C32.7897 1.86321 32.0162 0.480689 30.6879 0.0979579ZM36.9853 9.47879C36.0087 10.4551 36.0087 12.0407 36.9853 13.0171L43.9624 20L36.9775 26.9829C36.0009 27.9593 36.0009 29.5449 36.9775 30.5212C37.9541 31.4976 39.5402 31.4976 40.5168 30.5212L49.2675 21.7731C50.2442 20.7967 50.2442 19.2111 49.2675 18.2347L40.5168 9.4866C39.5402 8.51024 37.9541 8.51024 36.9775 9.4866L36.9853 9.47879ZM13.0225 9.47879C12.0459 8.50243 10.4598 8.50243 9.48316 9.47879L0.732479 18.2269C-0.24416 19.2033 -0.24416 20.7889 0.732479 21.7653L9.48316 30.5134C10.4598 31.4898 12.0459 31.4898 13.0225 30.5134C13.9991 29.537 13.9991 27.9514 13.0225 26.9751L6.03758 20L13.0225 13.0171C13.9991 12.0407 13.9991 10.4551 13.0225 9.47879Z" fill="white"/>
</svg>
