<svg width="36" height="40" viewBox="0 0 36 40" fill="none" xmlns="http://www.w3.org/2000/svg">
<path d="M35.835 6.25V10C35.835 13.4531 27.999 16.25 18.335 16.25C8.67091 16.25 0.834976 13.4531 0.834976 10V6.25C0.834976 2.79688 8.67091 0 18.335 0C27.999 0 35.835 2.79688 35.835 6.25ZM31.5537 16.7734C33.1787 16.1953 34.6709 15.4531 35.835 14.5391V22.5C35.835 25.9531 27.999 28.75 18.335 28.75C8.67091 28.75 0.834976 25.9531 0.834976 22.5V14.5391C1.99904 15.4609 3.49123 16.1953 5.11623 16.7734C8.62404 18.0234 13.2959 18.75 18.335 18.75C23.374 18.75 28.0459 18.0234 31.5537 16.7734ZM0.834976 27.0391C1.99904 27.9609 3.49123 28.6953 5.11623 29.2734C8.62404 30.5234 13.2959 31.25 18.335 31.25C23.374 31.25 28.0459 30.5234 31.5537 29.2734C33.1787 28.6953 34.6709 27.9531 35.835 27.0391V33.75C35.835 37.2031 27.999 40 18.335 40C8.67091 40 0.834976 37.2031 0.834976 33.75V27.0391Z" fill="white"/>
</svg>
