<svg width="38" height="40" viewBox="0 0 38 40" fill="none" xmlns="http://www.w3.org/2000/svg">
<path d="M37.8947 13.0182C38.1466 13.698 37.934 14.4559 37.3907 14.9404L33.9811 18.0191C34.0677 18.6677 34.1149 19.3319 34.1149 20.0039C34.1149 20.6759 34.0677 21.3401 33.9811 21.9887L37.3907 25.0674C37.934 25.5519 38.1466 26.3098 37.8947 26.9896C37.5482 27.9195 37.1308 28.8103 36.6505 29.6699L36.2804 30.3028C35.7607 31.1623 35.178 31.975 34.5402 32.7408C34.0756 33.3034 33.3039 33.4909 32.6109 33.2721L28.2249 31.889C27.1697 32.6939 26.0043 33.3659 24.7601 33.8738L23.7758 38.3356C23.6183 39.0467 23.0671 39.6093 22.3427 39.7265C21.256 39.9062 20.1379 40 18.9961 40C17.8543 40 16.7361 39.9062 15.6494 39.7265C14.925 39.6093 14.3738 39.0467 14.2163 38.3356L13.232 33.8738C11.9878 33.3659 10.8224 32.6939 9.76725 31.889L5.38907 33.2799C4.69612 33.4987 3.92443 33.3034 3.45984 32.7486C2.82201 31.9828 2.23931 31.1702 1.7196 30.3106L1.3495 29.6777C0.869159 28.8181 0.451815 27.9273 0.105341 26.9975C-0.146641 26.3176 0.0659684 25.5597 0.609303 25.0752L4.01893 21.9965C3.93231 21.3401 3.88506 20.6759 3.88506 20.0039C3.88506 19.3319 3.93231 18.6677 4.01893 18.0191L0.609303 14.9404C0.0659684 14.4559 -0.146641 13.698 0.105341 13.0182C0.451815 12.0883 0.869159 11.1975 1.3495 10.338L1.7196 9.70502C2.23931 8.84548 2.82201 8.03282 3.45984 7.26704C3.92443 6.70443 4.69612 6.5169 5.38907 6.73569L9.77512 8.11877C10.8303 7.31393 11.9957 6.64192 13.2399 6.13401L14.2242 1.6722C14.3817 0.961125 14.9329 0.398515 15.6573 0.281305C16.744 0.0937683 17.8621 0 19.0039 0C20.1457 0 21.2639 0.0937683 22.3506 0.273491C23.075 0.390701 23.6262 0.953311 23.7837 1.66439L24.768 6.1262C26.0122 6.63411 27.1776 7.30612 28.2328 8.11096L32.6188 6.72788C33.3118 6.50908 34.0834 6.70443 34.548 7.25923C35.1859 8.02501 35.7686 8.83766 36.2883 9.69721L36.6584 10.3301C37.1387 11.1897 37.5561 12.0805 37.9025 13.0104L37.8947 13.0182ZM19.0039 26.2551C20.6747 26.2551 22.277 25.5965 23.4584 24.4242C24.6398 23.2519 25.3035 21.6618 25.3035 20.0039C25.3035 18.346 24.6398 16.756 23.4584 15.5836C22.277 14.4113 20.6747 13.7527 19.0039 13.7527C17.3332 13.7527 15.7309 14.4113 14.5495 15.5836C13.3681 16.756 12.7044 18.346 12.7044 20.0039C12.7044 21.6618 13.3681 23.2519 14.5495 24.4242C15.7309 25.5965 17.3332 26.2551 19.0039 26.2551Z" fill="white"/>
</svg>
