<svg width="48" height="65" viewBox="0 0 48 65" fill="none" xmlns="http://www.w3.org/2000/svg">
<path d="M34.3454 2.62085C35.1813 1.89594 36.3672 1.80086 37.2878 2.3562L37.4675 2.47534C38.3558 3.12137 38.7114 4.26127 38.3737 5.28003L38.2975 5.4812L38.2966 5.48413L28.6833 27.9216L27.7878 30.0125H43.9997C44.9831 30.0125 45.8632 30.5832 46.2722 31.4539L46.3474 31.6316C46.6869 32.5274 46.4675 33.5548 45.7888 34.2517L45.6462 34.3865L13.655 62.3796C12.7635 63.1527 11.4732 63.2087 10.5319 62.5242C9.64407 61.8783 9.28843 60.7389 9.62567 59.7205L9.70282 59.5183L9.7038 59.5164L19.3161 37.0906L20.2126 34.9998H3.99969C3.0331 34.9996 2.14037 34.4226 1.72821 33.5476L1.65302 33.3679C1.29138 32.4136 1.56371 31.3103 2.35028 30.616L34.3444 2.61987L34.3454 2.62085Z" stroke="white" stroke-width="3"/>
</svg>
