<svg width="40" height="40" viewBox="0 0 40 40" fill="none" xmlns="http://www.w3.org/2000/svg">
<path d="M40 20C40 20.0703 40 20.1406 40 20.2109C39.9687 23.0625 37.375 25 34.5234 25H26.875C24.8047 25 23.125 26.6797 23.125 28.75C23.125 29.0156 23.1562 29.2734 23.2031 29.5234C23.3672 30.3203 23.7109 31.0859 24.0469 31.8594C24.5234 32.9375 24.9922 34.0078 24.9922 35.1406C24.9922 37.625 23.3047 39.8828 20.8203 39.9844C20.5469 39.9922 20.2734 40 19.9922 40C8.95312 40 0 31.0469 0 20C0 8.95313 8.95313 0 20 0C31.0469 0 40 8.95313 40 20ZM10 22.5C10 21.837 9.73661 21.2011 9.26777 20.7322C8.79893 20.2634 8.16304 20 7.5 20C6.83696 20 6.20107 20.2634 5.73223 20.7322C5.26339 21.2011 5 21.837 5 22.5C5 23.163 5.26339 23.7989 5.73223 24.2678C6.20107 24.7366 6.83696 25 7.5 25C8.16304 25 8.79893 24.7366 9.26777 24.2678C9.73661 23.7989 10 23.163 10 22.5ZM10 15C10.663 15 11.2989 14.7366 11.7678 14.2678C12.2366 13.7989 12.5 13.163 12.5 12.5C12.5 11.837 12.2366 11.2011 11.7678 10.7322C11.2989 10.2634 10.663 10 10 10C9.33696 10 8.70107 10.2634 8.23223 10.7322C7.76339 11.2011 7.5 11.837 7.5 12.5C7.5 13.163 7.76339 13.7989 8.23223 14.2678C8.70107 14.7366 9.33696 15 10 15ZM22.5 7.5C22.5 6.83696 22.2366 6.20107 21.7678 5.73223C21.2989 5.26339 20.663 5 20 5C19.337 5 18.7011 5.26339 18.2322 5.73223C17.7634 6.20107 17.5 6.83696 17.5 7.5C17.5 8.16304 17.7634 8.79893 18.2322 9.26777C18.7011 9.73661 19.337 10 20 10C20.663 10 21.2989 9.73661 21.7678 9.26777C22.2366 8.79893 22.5 8.16304 22.5 7.5ZM30 15C30.663 15 31.2989 14.7366 31.7678 14.2678C32.2366 13.7989 32.5 13.163 32.5 12.5C32.5 11.837 32.2366 11.2011 31.7678 10.7322C31.2989 10.2634 30.663 10 30 10C29.337 10 28.7011 10.2634 28.2322 10.7322C27.7634 11.2011 27.5 11.837 27.5 12.5C27.5 13.163 27.7634 13.7989 28.2322 14.2678C28.7011 14.7366 29.337 15 30 15Z" fill="white"/>
</svg>
