<svg width="41" height="40" viewBox="0 0 41 40" fill="none" xmlns="http://www.w3.org/2000/svg">
<path d="M25.665 38.125C25.665 38.8672 25.2275 39.5391 24.5556 39.8359C23.8837 40.1328 23.0869 40.0156 22.54 39.5156L16.29 33.8906C15.8915 33.5312 15.6728 33.0312 15.6728 32.5C15.6728 31.9688 15.8994 31.4609 16.29 31.1094L22.54 25.4844C23.0869 24.9922 23.8837 24.8672 24.5556 25.1641C25.2275 25.4609 25.665 26.1328 25.665 26.875V30H26.915C29.6728 30 31.915 27.7578 31.915 25V11.9766C29.704 11.0156 28.165 8.8125 28.165 6.25C28.165 2.79688 30.9619 0 34.415 0C37.8681 0 40.665 2.79688 40.665 6.25C40.665 8.8125 39.1259 11.0156 36.915 11.9766V25C36.915 30.5234 32.4384 35 26.915 35H25.665V38.125ZM36.29 6.25C36.29 5.75272 36.0924 5.27581 35.7408 4.92417C35.3892 4.57254 34.9123 4.375 34.415 4.375C33.9177 4.375 33.4408 4.57254 33.0892 4.92417C32.7375 5.27581 32.54 5.75272 32.54 6.25C32.54 6.74728 32.7375 7.22419 33.0892 7.57583C33.4408 7.92746 33.9177 8.125 34.415 8.125C34.9123 8.125 35.3892 7.92746 35.7408 7.57583C36.0924 7.22419 36.29 6.74728 36.29 6.25ZM15.665 1.875C15.665 1.13281 16.1025 0.460938 16.7744 0.164062C17.4462 -0.132812 18.2431 -0.015625 18.79 0.484375L25.04 6.10938C25.4384 6.46875 25.6572 6.96875 25.6572 7.5C25.6572 8.03125 25.4306 8.53906 25.04 8.89062L18.79 14.5156C18.2431 15.0078 17.4462 15.1328 16.7744 14.8359C16.1025 14.5391 15.665 13.8672 15.665 13.125V10H14.415C11.6572 10 9.41498 12.2422 9.41498 15V28.0234C11.6259 28.9844 13.165 31.1875 13.165 33.75C13.165 37.2031 10.3681 40 6.91498 40C3.46185 40 0.664978 37.2031 0.664978 33.75C0.664978 31.1875 2.20404 28.9844 4.41498 28.0234V15C4.41498 9.47656 8.89154 5 14.415 5H15.665V1.875ZM5.03998 33.75C5.03998 34.2473 5.23752 34.7242 5.58915 35.0758C5.94078 35.4275 6.4177 35.625 6.91498 35.625C7.41226 35.625 7.88917 35.4275 8.2408 35.0758C8.59243 34.7242 8.78998 34.2473 8.78998 33.75C8.78998 33.2527 8.59243 32.7758 8.2408 32.4242C7.88917 32.0725 7.41226 31.875 6.91498 31.875C6.4177 31.875 5.94078 32.0725 5.58915 32.4242C5.23752 32.7758 5.03998 33.2527 5.03998 33.75Z" fill="white"/>
</svg>
