<svg width="64" height="65" viewBox="0 0 64 65" fill="none" xmlns="http://www.w3.org/2000/svg">
<path d="M28 2C29.9126 2 31.5897 2.58441 32.7549 3.45801C33.9199 4.33146 34.5 5.42269 34.5 6.5C34.5 7.58101 33.9192 8.67074 32.7549 9.5459C31.6157 10.3927 30.5002 11.8006 30.5 13.5996C30.5 16.028 32.472 18 34.9004 18H42C44.4841 18 46.5 20.0159 46.5 22.5V29.5996C46.5 32.028 48.472 34 50.9004 34C52.6994 33.9998 54.1073 32.8843 54.9541 31.7451L54.9531 31.7441C55.8283 30.5799 56.919 30 58 30C59.0773 30 60.1685 30.5801 61.042 31.7451C61.9156 32.9103 62.5 34.5874 62.5 36.5C62.5 38.4126 61.9156 40.0897 61.042 41.2549C60.1685 42.4199 59.0773 43 58 43C56.985 43 55.9618 42.4883 55.1162 41.4619L54.9502 41.25C54.103 40.1125 52.6968 39.0002 50.9004 39C48.472 39 46.5 40.972 46.5 43.4004V58.5C46.5 60.9841 44.4841 63 42 63H34.9004C34.1288 63 33.5 62.3712 33.5 61.5996C33.5002 61.1615 33.7558 60.634 34.2959 60.1553L34.5449 59.9541L34.5498 59.9502C36.2821 58.651 37.5 56.7424 37.5 54.5C37.5 52.2649 36.2865 50.356 34.5547 49.0576C32.823 47.7593 30.4999 47 28 47C25.5001 47 23.177 47.7593 21.4453 49.0576C19.7135 50.356 18.5 52.2649 18.5 54.5C18.5 56.6024 19.5706 58.4108 21.1318 59.6992L21.4502 59.9502L21.4551 59.9541C22.1655 60.4822 22.4998 61.099 22.5 61.5996C22.5 62.3712 21.8712 63 21.0996 63H6C3.51593 63 1.5 60.9841 1.5 58.5V43.4004C1.5 42.6288 2.12882 42 2.90039 42C3.33851 42.0002 3.86598 42.2558 4.34473 42.7959L4.5459 43.0449L4.5498 43.0498C5.84899 44.7821 7.75758 46 10 46C12.2351 46 14.144 44.7865 15.4424 43.0547C16.7407 41.323 17.5 38.9999 17.5 36.5C17.5 34.0001 16.7407 31.677 15.4424 29.9453C14.144 28.2135 12.2351 27 10 27C7.89764 27 6.08916 28.0706 4.80078 29.6318L4.5498 29.9502L4.5459 29.9551C4.01785 30.6655 3.40104 30.9998 2.90039 31C2.12882 31 1.5 30.3712 1.5 29.5996V22.5C1.5 20.0159 3.51593 18 6 18H21.0996C23.528 18 25.5 16.028 25.5 13.5996C25.4998 11.9129 24.5194 10.5699 23.458 9.71094L23.2451 9.5459C22.0808 8.67074 21.5 7.58101 21.5 6.5C21.5 5.42269 22.0801 4.33146 23.2451 3.45801C24.4103 2.58441 26.0874 2 28 2Z" stroke="white" stroke-width="3"/>
</svg>
