<svg width="72" height="57" viewBox="0 0 72 57" fill="none" xmlns="http://www.w3.org/2000/svg">
<path d="M32 2H40C42.4841 2 44.5 4.01593 44.5 6.5V14.5C44.5 16.9841 42.4841 19 40 19H37.5V27H58C61.0341 27 63.5 29.4659 63.5 32.5V38H66C68.4841 38 70.5 40.0159 70.5 42.5V50.5C70.5 52.9841 68.4841 55 66 55H58C55.5159 55 53.5 52.9841 53.5 50.5V42.5C53.5 40.0159 55.5159 38 58 38H60.5V32.5C60.5 31.1216 59.3784 30 58 30H37.5V38H40C42.4841 38 44.5 40.0159 44.5 42.5V50.5C44.5 52.9841 42.4841 55 40 55H32C29.5159 55 27.5 52.9841 27.5 50.5V42.5C27.5 40.0159 29.5159 38 32 38H34.5V30H14C12.6216 30 11.5 31.1216 11.5 32.5V38H14C16.4841 38 18.5 40.0159 18.5 42.5V50.5C18.5 52.9841 16.4841 55 14 55H6C3.51593 55 1.5 52.9841 1.5 50.5V42.5C1.5 40.0159 3.51593 38 6 38H8.5V32.5C8.5 29.4659 10.9659 27 14 27H34.5V19H32C29.5159 19 27.5 16.9841 27.5 14.5V6.5C27.5 4.01593 29.5159 2 32 2Z" stroke="white" stroke-width="3"/>
</svg>
