<svg width="52" height="64" viewBox="0 0 52 64" fill="none" xmlns="http://www.w3.org/2000/svg">
<path d="M20 1.5H32C33.3841 1.5 34.5 2.61593 34.5 4C34.5 5.38407 33.3841 6.5 32 6.5H28.5V13.5859L29.7705 13.7822C34.1845 14.4649 38.2004 16.325 41.5127 19.0361L42.5635 19.8955L46.2236 16.2354C47.1394 15.32 48.5916 15.2632 49.5742 16.0645L49.7646 16.2354C50.7412 17.2119 50.741 18.7996 49.7646 19.7764L46.752 22.7891L45.8916 23.6504L46.5566 24.6699C49.0514 28.4947 50.5 33.0735 50.5 38C50.5 51.5341 39.5341 62.5 26 62.5C12.4659 62.5 1.5 51.5341 1.5 38C1.5 25.7511 10.4867 15.5961 22.2285 13.7822L23.5 13.5859V6.5H20C18.6159 6.5 17.5 5.38407 17.5 4C17.5 2.61593 18.6159 1.5 20 1.5ZM26 19.5C23.5091 19.5 21.5 21.5091 21.5 24V40C21.5 42.4909 23.5091 44.5 26 44.5C28.4909 44.5 30.5 42.4909 30.5 40V24C30.5 21.5091 28.4909 19.5 26 19.5Z" stroke="white" stroke-width="3"/>
</svg>
